<?xml version="1.0" encoding="utf-8"?>
<!-- Generator: Adobe Illustrator 18.0.0, SVG Export Plug-In . SVG Version: 6.00 Build 0)  -->
<!DOCTYPE svg PUBLIC "-//W3C//DTD SVG 1.1//EN" "http://www.w3.org/Graphics/SVG/1.1/DTD/svg11.dtd">
<svg version="1.1" id="Layer_1" xmlns="http://www.w3.org/2000/svg" xmlns:xlink="http://www.w3.org/1999/xlink" x="0px" y="0px"
	 width="603.7px" height="539.3px" viewBox="0 0 603.7 539.3" enable-background="new 0 0 603.7 539.3" xml:space="preserve">
<radialGradient id="SVGID_1_" cx="294.1553" cy="395.3421" r="287.8262" gradientTransform="matrix(3.2558 -1.0661 0.5136 1.5684 -820.6298 280.6467)" gradientUnits="userSpaceOnUse">
	<stop  offset="0" style="stop-color:#000000;stop-opacity:0.6"/>
	<stop  offset="1" style="stop-color:#000000;stop-opacity:0"/>
</radialGradient>
<path fill="url(#SVGID_1_)" d="M192.3,135.7C709.8-33.8,1195.6,30.9,1277.2,280.2c81.6,249.3-271.7,588.8-789.3,758.3
	S-515.3,1143.3-597,894S-325.2,305.1,192.3,135.7z"/>
<g opacity="0.2">
	<path fill="none" stroke="#000000" stroke-width="5.000000e-002" stroke-miterlimit="10" d="M8.5,527c21.5-3,42.5-2,64.5-6
		c178-33,347-28,518.9,1.9"/>
	<path fill="none" stroke="#000000" stroke-width="5.000000e-002" stroke-miterlimit="10" d="M590.8,514.1C422,485,256,478,81,511
		c-25,4-48,4-71.6,7.3"/>
	<path fill="none" stroke="#000000" stroke-width="5.000000e-002" stroke-miterlimit="10" d="M589.7,505.4C545,500,502,492,457,487
		c-88-10-173-12-262,0c-63,8-123,16-184.6,22.6"/>
	<path fill="none" stroke="#000000" stroke-width="5.000000e-002" stroke-miterlimit="10" d="M11.4,500.6
		C203,465,397,465,588.7,497.1"/>
	<path fill="none" stroke="#000000" stroke-width="5.000000e-002" stroke-miterlimit="10" d="M587.6,488.1C547,483,506,476,464,471
		c-125-15-244-8-370,13c-28,4-55,6-81.6,8.4"/>
	<path fill="none" stroke="#000000" stroke-width="5.000000e-002" stroke-miterlimit="10" d="M586.5,479.6C460,461,334,444,205,461
		c-65,8-128,16-191.6,22.8"/>
	<path fill="none" stroke="#000000" stroke-width="5.000000e-002" stroke-miterlimit="10" d="M14.4,475c188.6-34,380.6-35,571-3.5"
		/>
	<path fill="none" stroke="#000000" stroke-width="5.000000e-002" stroke-miterlimit="10" d="M584.3,462.7C462,445,341,429,216,443
		c-68,8-134,17-200.6,23.9"/>
	<path fill="none" stroke="#000000" stroke-width="5.000000e-002" stroke-miterlimit="10" d="M583.3,454.4
		C395,419,204,429,16.4,458.5"/>
	<path fill="none" stroke="#000000" stroke-width="5.000000e-002" stroke-miterlimit="10" d="M17.4,449.8
		C204,419,394,416,582.3,446.4"/>
	<path fill="none" stroke="#000000" stroke-width="5.000000e-002" stroke-miterlimit="10" d="M581.2,437.9
		C394,405,205,416,18.4,441.9"/>
	<path fill="none" stroke="#000000" stroke-width="5.000000e-002" stroke-miterlimit="10" d="M580.2,429.8
		C394,397,205,409,19.3,433.7"/>
	<path fill="none" stroke="#000000" stroke-width="5.000000e-002" stroke-miterlimit="10" d="M20.3,425.2C171,408,320,390,474,411
		c35,5,70,8,105.3,11.1"/>
	<path fill="none" stroke="#000000" stroke-width="5.000000e-002" stroke-miterlimit="10" d="M578.3,413.8C432,395,286,385,136,407
		c-39,5-77,7-114.8,10.5"/>
	<path fill="none" stroke="#000000" stroke-width="5.000000e-002" stroke-miterlimit="10" d="M577.4,405.9C432,388,289,379,141,399
		c-40,5-79,7-119,10.4"/>
	<path fill="none" stroke="#000000" stroke-width="5.000000e-002" stroke-miterlimit="10" d="M576.5,398C436,382,297,371,155,390
		c-45,5-88,8-132.1,11.5"/>
	<path fill="none" stroke="#000000" stroke-width="5.000000e-002" stroke-miterlimit="10" d="M23.7,393.2C146,381,268,366,392,375
		c43,3,85,7,128,11c19,1,37,2,55.7,4.6"/>
	<path fill="none" stroke="#000000" stroke-width="5.000000e-002" stroke-miterlimit="10" d="M574.8,382.5C480,372,385,363,290,366
		c-89,3-177,13-265.5,19.7"/>
	<path fill="none" stroke="#000000" stroke-width="5.000000e-002" stroke-miterlimit="10" d="M574.1,374.9C453,364,332,350,209,364
		c-62,7-123,7-183.8,13.9"/>
	<path fill="none" stroke="#000000" stroke-width="5.000000e-002" stroke-miterlimit="10" d="M25.9,369.8
		C208,348,391,349,573.4,367.6"/>
	<path fill="none" stroke="#000000" stroke-width="5.000000e-002" stroke-miterlimit="10" d="M572.7,359.8
		C391,336,209,348,26.6,362.5"/>
	<path fill="none" stroke="#000000" stroke-width="5.000000e-002" stroke-miterlimit="10" d="M572.1,352.3
		C390,332,208,341,27.2,354.8"/>
</g>
<g opacity="0.2">
	<path fill="none" stroke="#000000" stroke-width="5.000000e-002" stroke-miterlimit="10" d="M27.7,347.4
		C209,337,391,326,571.5,345.1"/>
	<path fill="none" stroke="#000000" stroke-width="5.000000e-002" stroke-miterlimit="10" d="M571,337.7C390,321,209,330,28.2,339.9
		"/>
	<path fill="none" stroke="#000000" stroke-width="5.000000e-002" stroke-miterlimit="10" d="M570.5,330.4
		C390,316,210,323,28.7,332.3"/>
	<path fill="none" stroke="#000000" stroke-width="5.000000e-002" stroke-miterlimit="10" d="M29.1,324.5
		C209,311,390,316,570.1,323.4"/>
	<path fill="none" stroke="#000000" stroke-width="5.000000e-002" stroke-miterlimit="10" d="M569.8,315.8
		C390,303,209,312,29.5,317.4"/>
	<path fill="none" stroke="#000000" stroke-width="5.000000e-002" stroke-miterlimit="10" d="M569.4,308.6
		C389,297,210,304,29.8,309.9"/>
	<path fill="none" stroke="#000000" stroke-width="5.000000e-002" stroke-miterlimit="10" d="M30.1,302.2
		C210,294,389,297,569.2,301.7"/>
	<path fill="none" stroke="#000000" stroke-width="5.000000e-002" stroke-miterlimit="10" d="M569,294.2c-180-6.2-359-3.2-538.7,0.9
		"/>
	<path fill="none" stroke="#000000" stroke-width="5.000000e-002" stroke-miterlimit="10" d="M568.9,287c-179.9-4-358.9-2-538.5,0.7
		"/>
	<path fill="none" stroke="#000000" stroke-width="5.000000e-002" stroke-miterlimit="10" d="M30.5,280c179.5-4,358.5,0,538.3,0.1"
		/>
	<path fill="none" stroke="#000000" stroke-width="5.000000e-002" stroke-miterlimit="10" d="M568.7,272.6C425,272,281,273,137,274
		c-35,0-71-1-106.5-1.1"/>
	<path fill="none" stroke="#000000" stroke-width="5.000000e-002" stroke-miterlimit="10" d="M568.8,265.5
		C389,267,210,268,30.5,265.6"/>
	<path fill="none" stroke="#000000" stroke-width="5.000000e-002" stroke-miterlimit="10" d="M30.4,257.9C63,257,95,257,128,258
		c111,4,221,2,332,3c36,0,73-2,108.8-2.4"/>
	<path fill="none" stroke="#000000" stroke-width="5.000000e-002" stroke-miterlimit="10" d="M569,251.1c-180,4.9-359,4.9-538.7-0.3
		"/>
	<path fill="none" stroke="#000000" stroke-width="5.000000e-002" stroke-miterlimit="10" d="M569.2,243.9C505,245,442,247,378,248
		c-116,2-232,1-347.9-4.6"/>
	<path fill="none" stroke="#000000" stroke-width="5.000000e-002" stroke-miterlimit="10" d="M569.4,236.7C389,244,210,245,29.8,236
		"/>
	<path fill="none" stroke="#000000" stroke-width="5.000000e-002" stroke-miterlimit="10" d="M29.5,228.2
		C210,236,390,241,569.7,229.8"/>
	<path fill="none" stroke="#000000" stroke-width="5.000000e-002" stroke-miterlimit="10" d="M570.1,222.2
		C390,232,209,233,29.2,221.1"/>
	<path fill="none" stroke="#000000" stroke-width="5.000000e-002" stroke-miterlimit="10" d="M570.5,214.9
		C390,225,210,227,28.8,213.6"/>
	<path fill="none" stroke="#000000" stroke-width="5.000000e-002" stroke-miterlimit="10" d="M28.3,205.7C209,216,390,224,571,207.9
		"/>
	<path fill="none" stroke="#000000" stroke-width="5.000000e-002" stroke-miterlimit="10" d="M571.5,200.2
		C390,213,209,216,27.8,198.5"/>
	<path fill="none" stroke="#000000" stroke-width="5.000000e-002" stroke-miterlimit="10" d="M572.1,192.7C520,195,468,200,416,203
		c-130,7-259-1-388.8-12.1"/>
</g>
<g opacity="0.2">
	<path fill="none" stroke="#000000" stroke-width="5.000000e-002" stroke-miterlimit="10" d="M562.3,184.6
		C387,205,212,197,37.4,181.9"/>
	<path fill="none" stroke="#000000" stroke-width="5.000000e-002" stroke-miterlimit="10" d="M36.7,174.3C85,178,132,179,180,184
		c129,14,256,4,383-6.9"/>
	<path fill="none" stroke="#000000" stroke-width="5.000000e-002" stroke-miterlimit="10" d="M36,166.5c176,16.5,352,28.5,527.7,3.1
		"/>
	<path fill="none" stroke="#000000" stroke-width="5.000000e-002" stroke-miterlimit="10" d="M564.5,161.7C414,178,264,184,111,167
		c-26-3-51-5-75.7-7.9"/>
	<path fill="none" stroke="#000000" stroke-width="5.000000e-002" stroke-miterlimit="10" d="M34.4,151C99,157,163,162,228,168
		c113,10,225-1,337.3-13.7"/>
	<path fill="none" stroke="#000000" stroke-width="5.000000e-002" stroke-miterlimit="10" d="M33.6,143.1
		C211,164,389,174,566.1,146.6"/>
	<path fill="none" stroke="#000000" stroke-width="5.000000e-002" stroke-miterlimit="10" d="M567.1,138.5
		C390,163,210,161,32.8,135.5"/>
	<path fill="none" stroke="#000000" stroke-width="5.000000e-002" stroke-miterlimit="10" d="M31.8,127.1
		C210,150,390,160,567.9,130.9"/>
	<path fill="none" stroke="#000000" stroke-width="5.000000e-002" stroke-miterlimit="10" d="M30.9,119.1C89,127,146,130,205,137
		c123,15,243,3,363.9-14"/>
	<path fill="none" stroke="#000000" stroke-width="5.000000e-002" stroke-miterlimit="10" d="M569.9,114.6C390,142,209,140,30,111.3
		"/>
	<path fill="none" stroke="#000000" stroke-width="5.000000e-002" stroke-miterlimit="10" d="M29,102.8C79,109,129,112,180,119
		c133,20,262,6,390.9-12.2"/>
	<path fill="none" stroke="#000000" stroke-width="5.000000e-002" stroke-miterlimit="10" d="M28,94.5C209,120,391,132,571.9,98.7"
		/>
	<path fill="none" stroke="#000000" stroke-width="5.000000e-002" stroke-miterlimit="10" d="M573,90.1C406,114,242,122,70,92
		c-15-3-29-4-43-5.5"/>
	<path fill="none" stroke="#000000" stroke-width="5.000000e-002" stroke-miterlimit="10" d="M26,77.8C73,84,119,87,167,94
		c139,21,272,9,407-11.9"/>
	<path fill="none" stroke="#000000" stroke-width="5.000000e-002" stroke-miterlimit="10" d="M24.9,69.4C73,77,119,78,168,86
		c139,22,272,9,407.1-12.3"/>
	<path fill="none" stroke="#000000" stroke-width="5.000000e-002" stroke-miterlimit="10" d="M23.9,60.9C207,90,393,101,576.2,65.2"
		/>
	<path fill="none" stroke="#000000" stroke-width="5.000000e-002" stroke-miterlimit="10" d="M577.4,56.3C393,88,207,85,22.9,52.7"
		/>
	<path fill="none" stroke="#000000" stroke-width="5.000000e-002" stroke-miterlimit="10" d="M21.8,43.7C86,50,148,60,213,67
		c124,14,244,1,365.4-19"/>
	<path fill="none" stroke="#000000" stroke-width="5.000000e-002" stroke-miterlimit="10" d="M20.8,35.1C79,41,135,49,193,57
		c132,17,259,2,386.5-17.6"/>
	<path fill="none" stroke="#000000" stroke-width="5.000000e-002" stroke-miterlimit="10" d="M580.7,30.3C523,37,466,45,408,51
		C277,64,149,45,19.8,26.7"/>
	<path fill="none" stroke="#000000" stroke-width="5.000000e-002" stroke-miterlimit="10" d="M18.8,17.6C72,22,124,30,178,37
		c137,20,270,6,403.7-15.2"/>
	<path fill="none" stroke="#000000" stroke-width="5.000000e-002" stroke-miterlimit="10" d="M17.8,8.9C40,11,61,12,83,15
		c81,13,158,22,237,23c38,0,76-2,114-5c50-4,99-15,148.8-20"/>
</g>
</svg>
