<svg xmlns="http://www.w3.org/2000/svg" viewBox="156 256 100 100"><path d="M184 298.4c-.3.9-.1 2 .7 2.7l8.7 8.6-2 12.1c-.2 1 .2 2 1 2.5.8.6 1.8.7 2.7.2l10.9-5.7 10.9 5.7c.9.5 1.9.4 2.7-.2.8-.6 1.2-1.6 1-2.5l-2-12.1 8.7-8.6c.7-.7 1-1.7.7-2.7a2.8 2.8 0 00-2.1-1.8l-12.1-1.8-5.5-11c-.9-1.8-3.8-1.8-4.7 0l-5.5 11-12.1 1.8c-.9.2-1.7.9-2 1.8h0z M230.5 335.6c1.3.4 2.6 1 3.9 1.9 1 .7 1.9 1.6 2.6 2.6 3.8 4.7 4.6 11.2 4.7 11.5.2 1.5-.7 3-2 3.4-1.6.5-3.4.7-5.3.7-3.2 0-6.5-.9-9.1-2.8a20 20 0 01-6.6-10.7M243.7 311.7c4.9-1 9.7.3 9.9.4 1.3.5 2.1 2 1.9 3.5-.1.4-2 9.8-8.1 13.9a16.5 16.5 0 01-12.7 1.8M240.3 285.2c3.6-5.6 10.3-7.6 10.6-7.7 1.4-.4 2.8.4 3.3 1.8.1.4 3.2 9 0 16.3a19.4 19.4 0 01-9.8 9.1M231.7 285.4a21 21 0 01-9.6-11.5c-2.2-7.7 2-15.7 2.2-16.1.7-1.3 2.2-1.9 3.5-1.2.3.2 7.8 4.1 10 11.8 1.5 5.5-.1 11.1-1.3 14M215.1 341.7c35.7-19.4 24.5-49.4 20.5-56.1M193.3 342.3a20 20 0 01-6.6 10.7 16 16 0 01-9.1 2.8c-1.9 0-3.7-.2-5.3-.7-1.4-.4-2.2-1.9-2-3.4 0-.3.9-6.8 4.7-11.5a11.8 11.8 0 016.5-4.5M177.3 331.3c-4.2.9-9 .7-12.7-1.8-6.2-4.1-8.1-13.5-8.1-13.9-.3-1.5.5-3.1 1.9-3.5a23 23 0 019.9-.4M167.6 304.6c-2.6-1.2-7.5-4-9.8-9.1-3.2-7.2-.1-15.9 0-16.3a2.7 2.7 0 013.3-1.8c.3.1 7 2.2 10.6 7.7M175.5 282.4a22.7 22.7 0 01-1.3-14c2.2-7.7 9.7-11.6 10-11.8 1.3-.7 2.8-.1 3.5 1.2.2.3 4.4 8.4 2.2 16.1a20.6 20.6 0 01-9.6 11.5M176.4 285.7c-4 6.7-15.2 36.7 20.5 56.1"/></svg>
