<svg viewBox="0 0 164 149" xmlns="http://www.w3.org/2000/svg"><linearGradient id="pejiSvgGradient" x1="9.2" x2="157.8" y1="57.6" y2="-10.8" gradientTransform="translate(0 50)" gradientUnits="userSpaceOnUse"><stop stop-color="#9B9867" offset="0"/><stop stop-color="#A0695C" offset="1"/></linearGradient><path d="M9 95c2 0 1-3 2-5l1-7a10155 10155 0 001-23V42 31c1-9 4-15 12-18 6-2 15-4 21-3l10 2c3 1 9 2 8 6 0 3-3 5-5 7-4 3-9 5-15 7l-18 4c-2 1-8 5-5 8s6 2 10 3c7 0 15 0 23-2 20-3 28-14 36-27 2-3 7-9 7-13 0-5-8-6-13-4L71 5H25l-5 2c-5 2-8 5-10 10-4 8-2 20-3 31l1 10-1 11-1 20c0 3 0 6 3 6zm150-46c-4-6-16-7-20-7a264 264 0 00-40 0l-11 3-9 3c-12 4-22 10-30 16-13 11-23 24-31 39L6 124l-6 17c0 3 0 6 2 7 3 2 6 0 7-2l6-6 7-10c12-17 23-37 39-50l17-10 11-3c18-6 38-4 51 0l15 5c2 1 5 0 6-1 6-6 0-16-2-22zm-7 65c1-5 0-10-2-13-4-4-9-5-14-7-10-3-24-6-37-4l-4 1c-2 1-5 1-7 3-8 4-14 10-20 16-2 2-9 8-4 11 1 1 4-1 7-1h4c2 1 5 3 8 1 4-1 8-6 11-8 10-8 23-9 37-8 8 1 17 0 16 11 0 10-2 17-10 21-4 2-9 3-14 3h-9l-13-1H39l-6-1-3 1 4 3c5 3 15 3 22 3l22-2c14 1 27 0 41 2 9 0 19 1 26-4 4-4 7-9 8-16v-11z" fill="url(#pejiSvgGradient)"/></svg>