<?xml version="1.0" encoding="utf-8"?>
<!-- Generator: Adobe Illustrator 18.0.0, SVG Export Plug-In . SVG Version: 6.00 Build 0)  -->
<!DOCTYPE svg PUBLIC "-//W3C//DTD SVG 1.1//EN" "http://www.w3.org/Graphics/SVG/1.1/DTD/svg11.dtd">
<svg version="1.1" id="Capa_1" xmlns="http://www.w3.org/2000/svg" xmlns:xlink="http://www.w3.org/1999/xlink" x="0px" y="0px"
	 width="100px" height="100px" viewBox="156 256 100 100" enable-background="new 156 256 100 100" xml:space="preserve">
<path fill="none" stroke="#000000" stroke-miterlimit="10" d="M184,302.4c-0.3,0.9-0.1,2,0.7,2.7l8.7,8.6l-2,12.1
	c-0.2,1,0.2,2,1,2.5c0.8,0.6,1.8,0.7,2.7,0.2l10.9-5.7l10.9,5.7c0.9,0.5,1.9,0.4,2.7-0.2c0.8-0.6,1.2-1.6,1-2.5l-2-12.1l8.7-8.6
	c0.7-0.7,1-1.7,0.7-2.7s-1.1-1.6-2.1-1.8l-12.1-1.8l-5.5-11c-0.9-1.8-3.8-1.8-4.7,0l-5.5,11l-12.1,1.8
	C185.1,300.8,184.3,301.5,184,302.4L184,302.4z"/>
<g>
	<path fill="none" stroke="#000000" stroke-miterlimit="10" d="M230.5,336.9c1.3,0.4,2.6,0.9,3.9,1.7c1,0.7,1.9,1.4,2.6,2.3
		c3.8,4.2,4.6,9.9,4.7,10.2c0.2,1.4-0.7,2.7-2,3c-1.6,0.4-3.4,0.6-5.3,0.6c-3.2,0-6.5-0.8-9.1-2.5c-3.8-2.5-5.7-6.7-6.6-9.5"/>
	<path fill="none" stroke="#000000" stroke-miterlimit="10" d="M243.7,315.6c4.9-0.9,9.7,0.3,9.9,0.3c1.3,0.4,2.1,1.8,1.9,3.1
		c-0.1,0.3-2,8.7-8.1,12.3c-3.7,2.2-8.4,2.4-12.7,1.6"/>
	<path fill="none" stroke="#000000" stroke-miterlimit="10" d="M240.3,292c3.6-4.9,10.3-6.8,10.6-6.9c1.4-0.4,2.8,0.3,3.3,1.6
		c0.1,0.3,3.2,8,0,14.5c-2.2,4.5-7.1,7-9.8,8.1"/>
	<path fill="none" stroke="#000000" stroke-miterlimit="10" d="M231.7,292.2c-1.7-0.9-7.7-4.3-9.6-10.2c-2.2-6.8,2-14,2.2-14.3
		c0.7-1.2,2.2-1.7,3.5-1.1c0.3,0.1,7.8,3.6,10,10.5c1.5,4.9-0.1,9.9-1.3,12.5"/>
	<path fill="none" stroke="#000000" stroke-miterlimit="10" d="M215.1,342.3c35.7-17.2,24.5-43.9,20.5-49.9"/>
	<path fill="none" stroke="#000000" stroke-miterlimit="10" d="M193.3,342.7c-0.9,2.8-2.8,7-6.6,9.5c-2.5,1.7-5.9,2.4-9.1,2.5
		c-1.9,0-3.7-0.2-5.3-0.6c-1.4-0.3-2.2-1.7-2-3c0-0.3,0.9-6,4.7-10.2c0.8-0.8,1.6-1.6,2.6-2.3c1.2-0.8,2.5-1.3,3.9-1.7"/>
	<path fill="none" stroke="#000000" stroke-miterlimit="10" d="M177.3,333c-4.2,0.8-9,0.6-12.7-1.6c-6.2-3.7-8.1-12-8.1-12.3
		c-0.3-1.4,0.5-2.7,1.9-3.1c0.3-0.1,5.1-1.2,9.9-0.3"/>
	<path fill="none" stroke="#000000" stroke-miterlimit="10" d="M167.6,309.3c-2.6-1.1-7.5-3.6-9.8-8.1c-3.2-6.4-0.1-14.1,0-14.5
		c0.5-1.3,1.9-2,3.3-1.6c0.3,0.1,7,1.9,10.6,6.9"/>
	<path fill="none" stroke="#000000" stroke-miterlimit="10" d="M175.5,289.5c-1.2-2.6-2.8-7.6-1.3-12.5c2.2-6.8,9.7-10.3,10-10.5
		c1.3-0.6,2.8-0.1,3.5,1.1c0.2,0.3,4.4,7.4,2.2,14.3c-1.9,6-7.9,9.4-9.6,10.2"/>
	<path fill="none" stroke="#000000" stroke-miterlimit="10" d="M176.4,292.4c-4,5.9-15.2,32.6,20.5,49.9"/>
	<path fill="none" stroke="#000000" stroke-miterlimit="10" d="M184,336.8"/>
</g>
</svg>
