<svg xmlns="http://www.w3.org/2000/svg" viewBox="0 0 1000 1000"><path d="M767 387c-56 0-105-24-140-61L415 446c5 17 9 35 9 54 0 31-9 59-22 85l204 115a190 190 0 01351 102c0 104-85 188-190 188s-191-84-191-188l2-21-230-130v-2A190 190 0 0143 500a190 190 0 01330-127l212-120c-5-18-9-36-9-55 0-104 86-188 191-188s190 84 190 189-85 188-190 188zm0 528c63 0 114-51 114-113 0-63-51-113-114-113s-115 50-115 113c0 62 52 113 115 113zM233 387c-63 0-114 51-114 113 0 63 51 113 114 113s115-50 115-113c0-62-52-113-115-113zM767 86c-63 0-115 50-115 113 0 62 52 113 115 113s114-51 114-113c0-63-51-113-114-113z"/></svg>