<?xml version="1.0" encoding="utf-8"?>
<!-- Generator: Adobe Illustrator 18.0.0, SVG Export Plug-In . SVG Version: 6.00 Build 0)  -->
<!DOCTYPE svg PUBLIC "-//W3C//DTD SVG 1.1//EN" "http://www.w3.org/Graphics/SVG/1.1/DTD/svg11.dtd">
<svg version="1.1" id="Capa_1" xmlns="http://www.w3.org/2000/svg" xmlns:xlink="http://www.w3.org/1999/xlink" x="0px" y="0px"
	 width="100px" height="100px" viewBox="0 0 100 100" enable-background="new 0 0 100 100" xml:space="preserve">
<g>
	<g>
		<path fill="none" stroke="#000000" stroke-miterlimit="10" d="M31.5,48.7h-8.8c-11.1,0-20.2,9-20.2,20.2v21.4
			c0,5.3,4.3,9.7,9.7,9.7H42c5.3,0,9.7-4.3,9.7-9.7V68.9C51.7,57.8,42.7,48.7,31.5,48.7z"/>
	</g>
</g>
<g>
	<g>
		<path fill="none" stroke="#000000" stroke-miterlimit="10" d="M27.1,9.6c-9.3,0-16.9,7.6-16.9,16.9c0,6.3,3.5,11.8,8.6,14.7
			c2.4,1.4,5.2,2.2,8.2,2.2s5.8-0.8,8.2-2.2c5.1-2.9,8.6-8.4,8.6-14.7C44,17.1,36.4,9.6,27.1,9.6z"/>
	</g>
</g>
<g>
	<g>
		<path fill="none" stroke="#000000" stroke-miterlimit="10" d="M58.3,100h6h23.9c5.3,0,9.7-4.3,9.7-9.7V68.9
			c0-11.1-9-20.2-20.2-20.2h-8.8c-2.8,0-5.4,0.6-7.9,1.6"/>
	</g>
</g>
<g>
	<g>
		<path fill="none" stroke="#000000" stroke-miterlimit="10" d="M73.2,9.6c-9.3,0-16.9,7.6-16.9,16.9c0,6.3,3.5,11.8,8.6,14.7
			c2.4,1.4,5.2,2.2,8.2,2.2s5.8-0.8,8.2-2.2c5.1-2.9,8.6-8.4,8.6-14.7C90.1,17.1,82.5,9.6,73.2,9.6z"/>
	</g>
</g>
</svg>
