<svg role="img" xmlns="http://www.w3.org/2000/svg" viewBox="-5 -5 458 522" class="" style="">
	<path stroke="gray" stroke-width="9" fill="none" d="M224 256c70.7 0 128-57.3 128-128S294.7 0 224 0 96 57.3 96 128s57.3 128 128 128zm89.6 32h-16.7c-22.2 10.2-46.9 16-72.9 16s-50.6-5.8-72.9-16h-16.7C60.2 288 0 348.2 0 422.4V464c0 26.5 21.5 48 48 48h352c26.5 0 48-21.5 48-48v-41.6c0-74.2-60.2-134.4-134.4-134.4z" class="ZaQxZQgc_0"></path>
	<style >
		.ZaQxZQgc_0 {
			stroke-dasharray: 1997 1999;
			stroke-dashoffset: 1998;
		}

		.start .ZaQxZQgc_0 {
			animation: ZaQxZQgc_draw 4000ms ease-in 0ms forwards;
		}

		@keyframes ZaQxZQgc_draw {
			100% {
				stroke-dashoffset: 0;
			}
		}

		@keyframes ZaQxZQgc_fade {
			0% {
				stroke-opacity: 1;
			}

			95.1219512195122% {
				stroke-opacity: 1;
			}

			100% {
				stroke-opacity: 0;
			}
		}

	</style>
</svg>
